# This file uses meters as units for non-parametric coordinates.

mtllib 5.mtl
g default
v -30.675751 1.142156 126.348595
v -30.675751 1.142152 141.756500
v -13.223949 23.424717 136.436539
v -13.196672 23.435040 128.703247
v -20.212751 1.142152 141.756500
v -10.292561 18.090082 136.446228
v -20.212751 1.142156 124.583328
v -10.265274 18.100384 128.712936
v -8.883099 56.687626 120.349152
v -5.003166 64.514679 120.340141
v -5.003166 64.514679 111.850632
v -8.883099 56.687630 111.841621
v 42.543762 1.142169 106.979538
v 42.543762 1.142165 125.211212
v 22.089287 1.142156 125.211205
v 22.089291 1.142160 106.979538
v -27.626968 28.846008 123.050720
v -6.122819 51.493027 120.681534
v -5.721257 50.384674 111.368149
v -26.963375 28.074305 109.346420
v -18.295441 19.004379 106.308891
v -2.336625 42.996277 108.571678
v -2.336625 44.539692 121.103523
v -18.662632 20.539715 123.261711
v -24.849268 1.142156 124.343987
v -40.799042 11.378757 124.238792
v -22.539188 1.142169 106.284706
v -36.277344 16.018368 108.264153
v -42.425449 1.142156 124.829346
v -42.543762 1.142169 107.726189
v -28.815121 1.142165 124.881935
v 11.814828 38.256824 110.559357
v 29.682859 12.737268 108.298637
v 34.631073 14.640722 105.961861
v 13.806667 40.688206 109.779449
v 25.726191 1.142173 83.000473
v 21.877657 12.951391 86.243103
v 37.999382 1.142160 105.137367
v -4.434083 38.026337 87.350304
v -1.136889 41.319725 82.914299
v -0.340399 15.399927 62.897362
v -5.712050 11.796064 68.222229
v 5.634972 38.770855 97.981575
v 8.677217 40.244553 97.683220
v 15.544895 11.919636 87.194328
v 0.736232 50.359039 110.549278
v 3.526819 51.683540 110.578476
v -37.637840 1.142169 107.465012
v -34.796173 12.639223 107.036240
v -36.742676 12.639227 94.245903
v -37.896458 1.142169 92.477554
v -6.135295 56.465027 104.722549
v -1.634897 57.030460 104.622215
v -1.423597 59.856339 98.247849
v -6.884960 58.784969 97.804695
v -38.648720 13.804415 93.312897
v -39.802483 1.142169 91.544548
v -11.002760 49.986122 107.985306
v -7.875447 50.364769 104.192375
v -11.002756 50.484844 103.536346
v -25.054230 34.709652 107.464310
v -24.497337 35.540009 98.965820
v -9.176733 50.484844 100.257767
v -17.234531 38.779312 87.939598
v -19.140560 39.944515 87.006599
v -9.934662 51.151314 99.324760
v 23.978111 1.142165 78.788536
v 20.228966 15.213020 82.758331
v 19.294044 1.142173 83.224533
v -2.777520 52.437119 100.157425
v -5.946962 39.829529 80.992012
v -2.774599 55.208195 90.873817
v -6.558616 50.363972 101.688934
v 1.739107 52.181908 103.042122
v -0.084988 50.359676 103.140869
v 3.821419 53.936501 99.156227
v -1.974794 54.327152 96.317749
v 10.319056 42.064247 93.545586
v 0.064410 1.142169 59.286118
v -16.861656 41.264847 83.089737
v -6.461714 14.281588 61.395149
v -26.978374 20.229446 68.394882
v -26.978374 1.142173 66.234810
v -5.713114 1.142177 58.243504
v -10.536228 54.285728 92.710854
v -26.228716 1.142173 73.774132
v -26.228716 17.743933 74.486343
v -4.218784 35.613998 105.198357
v -3.592551 8.490137 105.703072
v -14.358063 35.577015 106.331329
v -4.019353 50.368622 110.782608
v -3.896610 1.142169 107.401985
v 32.258400 1.142160 108.576340
v 30.970634 1.142169 108.437485
v -26.403366 36.705204 98.032822
v -28.134747 18.909128 73.553329
v -28.134747 1.142165 72.841103
v -12.908785 51.151321 102.603340
v -3.054428 50.358665 101.032310
v -31.838524 1.142169 108.807968
v -26.366428 30.202606 108.740463
v -26.228716 1.142165 73.061913
v -4.963456 1.142173 65.070587
v -35.316116 1.142169 108.958794
vt 0.551980 0.609159
vt 0.551980 0.684949
vt 0.412757 0.658781
vt 0.412634 0.620741
vt 0.698155 0.090595
vt 0.684765 0.140289
vt 0.587945 0.165575
vt 0.567014 0.144165
vt 0.684035 0.224760
vt 0.587505 0.203612
vt 0.698155 0.275008
vt 0.567306 0.225714
vt 0.382816 0.658909
vt 0.382693 0.620869
vt 0.567014 0.024221
vt 0.609985 0.024265
vt 0.609985 0.066025
vt 0.567014 0.066069
vt 0.999695 0.089985
vt 0.999695 0.000305
vt 0.340033 0.181391
vt 0.027202 0.157475
vt 0.027202 0.115627
vt 0.340033 0.091711
vt 0.000305 0.082114
vt 0.382083 0.000305
vt 0.382083 0.272797
vt 0.000305 0.190988
vt 0.110570 0.743186
vt 0.116349 0.916591
vt 0.064415 0.919313
vt 0.030331 0.740783
vt 0.566404 0.119107
vt 0.566404 0.258744
vt 0.507690 0.255782
vt 0.481465 0.130198
vt 0.489310 0.287500
vt 0.422244 0.158539
vt 0.539797 0.300795
vt 0.475113 0.025134
vt 0.382693 0.052771
vt 0.116349 0.626304
vt 0.044938 0.656080
vt 0.109722 0.578672
vt 0.031982 0.593951
vt 0.455625 0.019204
vt 0.388979 0.000305
vt 0.108972 0.442890
vt 0.234113 0.531180
vt 0.224071 0.557818
vt 0.096811 0.453169
vt 0.683243 0.579145
vt 0.620929 0.572934
vt 0.613672 0.458380
vt 0.683243 0.453802
vt 0.922747 0.531213
vt 0.891124 0.532473
vt 0.879570 0.371748
vt 0.920782 0.371413
vt 0.462264 0.583735
vt 0.463681 0.567162
vt 0.610724 0.602869
vt 0.049505 0.388128
vt 0.042931 0.401880
vt 0.316741 0.598702
vt 0.303163 0.652852
vt 0.240477 0.639669
vt 0.247946 0.581582
vt 0.766330 0.684917
vt 0.744981 0.691417
vt 0.731731 0.659764
vt 0.757385 0.649963
vt 0.228487 0.641526
vt 0.238255 0.578672
vt 0.298327 0.870705
vt 0.316741 0.895093
vt 0.281130 0.887410
vt 0.276635 0.872526
vt 0.295635 0.769784
vt 0.253295 0.773138
vt 0.845776 0.334777
vt 0.843366 0.420774
vt 0.832548 0.422683
vt 0.840288 0.336834
vt 0.565541 0.904688
vt 0.554889 0.831213
vt 0.590488 0.829730
vt 0.593181 0.889098
vt 0.376848 0.304982
vt 0.364881 0.399411
vt 0.333499 0.410699
vt 0.331444 0.319460
vt 0.154252 0.593635
vt 0.135792 0.593713
vt 0.140394 0.578672
vt 0.154306 0.578946
vt 0.453093 0.502754
vt 0.670161 0.608549
vt 0.390573 0.566993
vt 0.382693 0.529098
vt 0.393449 0.579532
vt 0.386408 0.310455
vt 0.419007 0.309968
vt 0.412470 0.341094
vt 0.393256 0.331629
vt 0.930673 0.626067
vt 0.909541 0.622575
vt 0.552589 0.680775
vt 0.588187 0.679292
vt 0.495129 0.381407
vt 0.490871 0.304560
vt 0.641318 0.302882
vt 0.643821 0.443510
vt 0.715546 0.453193
vt 0.715546 0.301405
vt 0.560632 0.609159
vt 0.593181 0.611025
vt 0.791676 0.531414
vt 0.736877 0.525418
vt 0.722247 0.367693
vt 0.827799 0.400636
vt 0.827799 0.306147
vt 0.716155 0.301405
vt 0.769325 0.613940
vt 0.729907 0.616413
vt 0.845208 0.658835
vt 0.841216 0.565321
vt 0.877289 0.563194
vt 0.878961 0.660571
vt 0.878961 0.348603
vt 0.867975 0.424915
vt 0.363568 0.559218
vt 0.329008 0.569037
vt 0.012139 0.379108
vt 0.018623 0.368151
vt 0.124295 0.361802
vt 0.256283 0.366932
vt 0.046118 0.355465
vt 0.123160 0.312334
vt 0.046679 0.364443
vt 0.293612 0.366164
vt 0.294200 0.578063
vt 0.291088 0.538099
vt 0.294200 0.273407
vt 0.125442 0.703966
vt 0.190212 0.687328
vt 0.227878 0.812325
vt 0.116958 0.833522
vt 0.119489 0.896616
vt 0.227878 0.899790
vt 0.135195 0.604638
vt 0.156474 0.600020
vt 0.266244 0.870197
vt 0.241498 0.773462
vt 0.828409 0.562422
vt 0.761577 0.718785
vt 0.794026 0.713279
vt 0.783567 0.723592
vt 0.766782 0.728674
vt 0.009651 0.356163
vt 0.001794 0.381602
vt 0.000305 0.365371
vt 0.014629 0.392302
vt 0.382693 0.327980
vt 0.016518 0.781308
vt 0.000305 0.648557
vt 0.018150 0.629963
vt 0.023094 0.752013
vt 0.038788 0.903705
vt 0.835295 0.659591
vt 0.850222 0.659596
vt 0.896601 0.301405
vt 0.930673 0.317539
vt 0.290086 0.576277
vt 0.382083 0.610768
vt 0.354640 0.630472
vt 0.019230 0.621537
vt 0.012423 0.613007
vt 0.348312 0.279484
vt 0.382083 0.273407
vt 0.851451 0.301405
vt 0.878475 0.316200
vt 0.564978 0.027546
vt 0.205062 0.292918
vn -0.787112 0.616810 -0.000700
vn -0.787112 0.616810 -0.000700
vn -0.787112 0.616810 -0.000700
vn -0.787112 0.616810 -0.000700
vn 0.081800 0.207099 0.974894
vn 0.081800 0.207099 0.974894
vn 0.081800 0.207099 0.974894
vn 0.081800 0.207099 0.974894
vn 0.862820 -0.505512 0.000700
vn 0.862820 -0.505512 0.000700
vn 0.862820 -0.505512 0.000700
vn 0.862820 -0.505512 0.000700
vn -0.049999 0.196698 -0.979189
vn -0.049999 0.196698 -0.979189
vn -0.049999 0.196698 -0.979189
vn -0.049999 0.196698 -0.979189
vn 0.876387 0.481593 0.003700
vn 0.876387 0.481593 0.003700
vn 0.876387 0.481593 0.003700
vn 0.876387 0.481593 0.003700
vn -0.895982 0.444091 0.000000
vn -0.895982 0.444091 0.000000
vn -0.895982 0.444091 0.000000
vn -0.895982 0.444091 0.000000
vn 0.799916 0.600112 0.000000
vn 0.799916 0.600112 0.000000
vn 0.799916 0.600112 0.000000
vn 0.799916 0.600112 0.000000
vn -0.873402 -0.487001 0.000000
vn -0.873402 -0.487001 0.000000
vn -0.873402 -0.487001 0.000000
vn -0.873402 -0.487001 0.000000
vn -0.021400 0.067499 -0.997490
vn -0.021400 0.067499 -0.997490
vn -0.021400 0.067499 -0.997490
vn -0.021400 0.067499 -0.997490
vn -0.021400 0.067499 0.997490
vn -0.021400 0.067499 0.997490
vn -0.021400 0.067499 0.997490
vn -0.021400 0.067499 0.997490
vn -0.722144 0.685941 -0.089405
vn -0.722144 0.685941 -0.089405
vn -0.722144 0.685941 -0.089405
vn -0.722144 0.685941 -0.089405
vn 0.827688 -0.556992 0.068499
vn 0.827688 -0.556992 0.068499
vn 0.827688 -0.556992 0.068499
vn 0.827688 -0.556992 0.068499
vn 0.033700 0.069501 0.997013
vn 0.033700 0.069501 0.997013
vn 0.033700 0.069501 0.997013
vn 0.033700 0.069501 0.997013
vn 0.891190 0.451995 -0.038500
vn 0.891190 0.451995 -0.038500
vn 0.891190 0.451995 -0.038500
vn 0.891190 0.451995 -0.038500
vn 0.023800 0.049001 0.998515
vn 0.023800 0.049001 0.998515
vn 0.023800 0.049001 0.998515
vn 0.023800 0.049001 0.998515
vn -0.794194 0.604695 -0.060000
vn -0.794194 0.604695 -0.060000
vn -0.794194 0.604695 -0.060000
vn -0.794194 0.604695 -0.060000
vn -0.950611 0.298603 -0.084701
vn -0.950611 0.298603 -0.084701
vn -0.950611 0.298603 -0.084701
vn -0.950611 0.298603 -0.084701
vn 0.027501 0.094702 0.995126
vn 0.027501 0.094702 0.995126
vn 0.027501 0.094702 0.995126
vn 0.027501 0.094702 0.995126
vn 0.332016 0.139207 0.932945
vn 0.332016 0.139207 0.932945
vn 0.332016 0.139207 0.932945
vn 0.332016 0.139207 0.932945
vn 0.810163 0.310886 -0.496977
vn 0.810163 0.310886 -0.496977
vn 0.810163 0.310886 -0.496977
vn 0.810163 0.310886 -0.496977
vn -0.809282 0.357392 -0.466190
vn -0.809282 0.357392 -0.466190
vn -0.809282 0.357392 -0.466190
vn -0.809282 0.357392 -0.466190
vn -0.203499 0.296199 -0.933196
vn -0.203499 0.296199 -0.933196
vn -0.203499 0.296199 -0.933196
vn -0.203499 0.296199 -0.933196
vn 0.105695 0.063797 0.992350
vn 0.105695 0.063797 0.992350
vn 0.105695 0.063797 0.992350
vn 0.105695 0.063797 0.992350
vn -0.982986 0.166298 0.077999
vn -0.982986 0.166298 0.077999
vn -0.982986 0.166298 0.077999
vn -0.982986 0.166298 0.077999
vn -0.163300 0.917802 0.361901
vn -0.163300 0.917802 0.361901
vn -0.163300 0.917802 0.361901
vn -0.163300 0.917802 0.361901
vn -0.459001 -0.085600 0.884302
vn -0.459001 -0.085600 0.884302
vn -0.459001 -0.085600 0.884302
vn -0.459001 -0.085600 0.884302
vn -0.057899 0.996978 0.051799
vn -0.057899 0.996978 0.051799
vn -0.057899 0.996978 0.051799
vn -0.057899 0.996978 0.051799
vn -0.741613 0.669812 0.036901
vn -0.741613 0.669812 0.036901
vn -0.741613 0.669812 0.036901
vn -0.741613 0.669812 0.036901
vn 0.665740 0.253115 -0.701942
vn 0.665740 0.253115 -0.701942
vn 0.665740 0.253115 -0.701942
vn 0.665740 0.253115 -0.701942
vn 0.691521 -0.022001 0.722022
vn 0.691521 -0.022001 0.722022
vn 0.691521 -0.022001 0.722022
vn 0.691521 -0.022001 0.722022
vn 0.990581 -0.071799 -0.116598
vn 0.990581 -0.071799 -0.116598
vn 0.990581 -0.071799 -0.116598
vn 0.990581 -0.071799 -0.116598
vn 0.035000 0.999209 0.018900
vn 0.035000 0.999209 0.018900
vn 0.035000 0.999209 0.018900
vn 0.035000 0.999209 0.018900
vn 0.699603 0.569603 -0.431402
vn 0.699603 0.569603 -0.431402
vn 0.699603 0.569603 -0.431402
vn 0.699603 0.569603 -0.431402
vn -0.109797 0.268593 -0.956976
vn -0.109797 0.268593 -0.956976
vn -0.109797 0.268593 -0.956976
vn -0.109797 0.268593 -0.956976
vn 0.738004 0.623403 -0.258301
vn 0.738004 0.623403 -0.258301
vn 0.738004 0.623403 -0.258301
vn 0.738004 0.623403 -0.258301
vn -0.260803 0.273603 -0.925810
vn -0.260803 0.273603 -0.925810
vn -0.260803 0.273603 -0.925810
vn -0.260803 0.273603 -0.925810
vn -0.899190 0.430995 0.075499
vn -0.899190 0.430995 0.075499
vn -0.899190 0.430995 0.075499
vn -0.899190 0.430995 0.075499
vn -0.112700 0.845098 0.522598
vn -0.112700 0.845098 0.522598
vn -0.112700 0.845098 0.522598
vn -0.112700 0.845098 0.522598
vn -0.917426 0.288908 -0.273608
vn -0.917426 0.288908 -0.273608
vn -0.917426 0.288908 -0.273608
vn -0.917426 0.288908 -0.273608
vn 0.698193 -0.029700 0.715293
vn 0.698193 -0.029700 0.715293
vn 0.698193 -0.029700 0.715293
vn 0.698193 -0.029700 0.715293
vn 0.475709 0.618312 -0.625612
vn 0.475709 0.618312 -0.625612
vn 0.475709 0.618312 -0.625612
vn 0.475709 0.618312 -0.625612
vn 0.596005 0.491604 -0.634905
vn 0.596005 0.491604 -0.634905
vn 0.596005 0.491604 -0.634905
vn 0.596005 0.491604 -0.634905
vn 0.635873 0.285188 -0.717170
vn 0.635873 0.285188 -0.717170
vn 0.635873 0.285188 -0.717170
vn 0.635873 0.285188 -0.717170
vn 0.688992 0.026300 0.724292
vn 0.688992 0.026300 0.724292
vn 0.688992 0.026300 0.724292
vn 0.688992 0.026300 0.724292
vn -0.087700 0.603401 -0.792601
vn -0.087700 0.603401 -0.792601
vn -0.087700 0.603401 -0.792601
vn -0.087700 0.603401 -0.792601
vn -0.315392 0.147196 -0.937476
vn -0.315392 0.147196 -0.937476
vn -0.315392 0.147196 -0.937476
vn -0.315392 0.147196 -0.937476
vn -0.150303 0.593312 -0.790816
vn -0.150303 0.593312 -0.790816
vn -0.150303 0.593312 -0.790816
vn -0.150303 0.593312 -0.790816
vn -0.994134 -0.008700 0.107804
vn -0.994134 -0.008700 0.107804
vn -0.994134 -0.008700 0.107804
vn -0.994134 -0.008700 0.107804
vn -0.916318 0.323006 0.236705
vn -0.916318 0.323006 0.236705
vn -0.916318 0.323006 0.236705
vn -0.916318 0.323006 0.236705
vn 0.986615 0.074401 -0.145102
vn 0.986615 0.074401 -0.145102
vn 0.986615 0.074401 -0.145102
vn 0.986615 0.074401 -0.145102
vn -0.935158 0.309286 0.172692
vn -0.935158 0.309286 0.172692
vn -0.935158 0.309286 0.172692
vn -0.935158 0.309286 0.172692
vn -0.557703 0.820605 0.124801
vn -0.557703 0.820605 0.124801
vn -0.557703 0.820605 0.124801
vn -0.557703 0.820605 0.124801
vn -0.147197 -0.084599 0.985483
vn -0.147197 -0.084599 0.985483
vn -0.147197 -0.084599 0.985483
vn -0.147197 -0.084599 0.985483
vn 0.134098 -0.370294 0.919185
vn 0.134098 -0.370294 0.919185
vn 0.134098 -0.370294 0.919185
vn 0.134098 -0.370294 0.919185
vn -0.028800 0.238904 0.970616
vn -0.028800 0.238904 0.970616
vn -0.028800 0.238904 0.970616
vn -0.028800 0.238904 0.970616
vn -0.197208 -0.275212 0.940940
vn -0.197208 -0.275212 0.940940
vn -0.197208 -0.275212 0.940940
vn -0.197208 -0.275212 0.940940
vn -0.058300 0.227200 0.972101
vn -0.058300 0.227200 0.972101
vn -0.058300 0.227200 0.972101
vn -0.794802 0.516201 -0.319101
vn -0.794802 0.516201 -0.319101
vn -0.794802 0.516201 -0.319101
vn -0.794802 0.516201 -0.319101
vn -0.868103 0.072900 -0.491002
vn -0.868103 0.072900 -0.491002
vn -0.868103 0.072900 -0.491002
vn -0.868103 0.072900 -0.491002
vn -0.620894 0.732793 -0.278397
vn -0.620894 0.732793 -0.278397
vn -0.620894 0.732793 -0.278397
vn -0.620894 0.732793 -0.278397
vn -0.403699 0.087500 0.910698
vn -0.403699 0.087500 0.910698
vn -0.403699 0.087500 0.910698
vn -0.403699 0.087500 0.910698
vn 0.551193 0.269397 -0.789691
vn 0.551193 0.269397 -0.789691
vn 0.551193 0.269397 -0.789691
vn 0.551193 0.269397 -0.789691
vn 0.306001 0.925304 0.224001
vn 0.306001 0.925304 0.224001
vn 0.306001 0.925304 0.224001
vn 0.306001 0.925304 0.224001
vn -0.420499 0.038000 0.906497
vn -0.420499 0.038000 0.906497
vn -0.420499 0.038000 0.906497
vn -0.420499 0.038000 0.906497
vn -0.078099 0.680590 0.728490
vn -0.078099 0.680590 0.728490
vn -0.078099 0.680590 0.728490
vn -0.078099 0.680590 0.728490
vn 0.007700 0.999957 -0.005100
vn 0.007700 0.999957 -0.005100
vn 0.007700 0.999957 -0.005100
vn 0.001300 0.999999 -0.000900
vn 0.001300 0.999999 -0.000900
vn 0.001300 0.999999 -0.000900
vn 0.002000 0.999998 -0.000100
vn 0.002000 0.999998 -0.000100
vn 0.002000 0.999998 -0.000100
vn -0.533800 0.387500 0.751600
vn -0.533800 0.387500 0.751600
vn -0.533800 0.387500 0.751600
vn -0.000200 1.000000 -0.000400
vn -0.000200 1.000000 -0.000400
vn -0.000200 1.000000 -0.000400
vn 0.000400 0.999999 -0.001000
vn 0.000400 0.999999 -0.001000
vn 0.000400 0.999999 -0.001000
vn -0.438979 0.124294 0.889858
vn -0.438979 0.124294 0.889858
vn -0.438979 0.124294 0.889858
vn -0.438979 0.124294 0.889858
vn -0.486210 0.407108 0.773216
vn -0.486210 0.407108 0.773216
vn -0.486210 0.407108 0.773216
vn -0.486210 0.407108 0.773216
vn -0.455216 0.359613 0.814529
vn -0.455216 0.359613 0.814529
vn -0.455216 0.359613 0.814529
vn 0.026201 0.015201 -0.999541
vn 0.026201 0.015201 -0.999541
vn 0.026201 0.015201 -0.999541
vn 0.026201 0.015201 -0.999541
vn 0.448507 0.037001 -0.893013
vn 0.448507 0.037001 -0.893013
vn 0.448507 0.037001 -0.893013
vn 0.448507 0.037001 -0.893013
vn -0.078203 0.003300 0.996932
vn -0.078203 0.003300 0.996932
vn -0.078203 0.003300 0.996932
vn -0.000100 -1.000000 0.000000
vn -0.000100 -1.000000 0.000000
vn -0.000100 -1.000000 0.000000
vn -0.745239 0.142308 -0.651434
vn -0.745239 0.142308 -0.651434
vn -0.745239 0.142308 -0.651434
vn -0.745239 0.142308 -0.651434
vn 0.418410 0.052801 0.906722
vn 0.418410 0.052801 0.906722
vn 0.418410 0.052801 0.906722
vn 0.418410 0.052801 0.906722
vn 0.991839 0.087103 -0.093104
vn 0.991839 0.087103 -0.093104
vn 0.991839 0.087103 -0.093104
vn 0.991839 0.087103 -0.093104
vn 0.100504 -0.039901 -0.994136
vn 0.100504 -0.039901 -0.994136
vn 0.100504 -0.039901 -0.994136
vn 0.100504 -0.039901 -0.994136
vn -0.222308 0.170606 0.959934
vn -0.222308 0.170606 0.959934
vn -0.222308 0.170606 0.959934
vn -0.222308 0.170606 0.959934
vn 0.169006 -0.674123 0.719024
vn 0.169006 -0.674123 0.719024
vn 0.169006 -0.674123 0.719024
vn 0.169006 -0.674123 0.719024
vn 0.979602 -0.193100 -0.055600
vn 0.979602 -0.193100 -0.055600
vn 0.979602 -0.193100 -0.055600
vn 0.979602 -0.193100 -0.055600
vn -0.180798 0.826190 -0.533594
vn -0.180798 0.826190 -0.533594
vn -0.180798 0.826190 -0.533594
vn -0.180798 0.826190 -0.533594
vn -0.904169 0.329889 0.271391
vn -0.904169 0.329889 0.271391
vn -0.904169 0.329889 0.271391
vn -0.904169 0.329889 0.271391
vn 0.960174 -0.266193 0.084898
vn 0.958684 -0.269995 0.089598
vn 0.972044 -0.231011 0.042002
vn 0.058200 0.000000 0.998305
vn 0.062802 0.001800 0.998024
vn 0.034399 -0.009500 0.999363
vn 0.958684 -0.269995 0.089598
vn 0.960174 -0.266193 0.084898
vn 0.947621 -0.295507 0.121203
vn 0.072099 0.005500 0.997382
vn 0.062802 0.001800 0.998024
vn 0.058200 0.000000 0.998305
vn 0.072099 0.005500 0.997382
s off
g Cueva
usemtl initialShadingGroup
f 1/1/1 2/2/2 3/3/3 4/4/4
f 2/5/5 5/6/6 6/7/7 3/8/8
f 5/6/9 7/9/10 8/10/11 6/7/12
f 7/9/13 1/11/14 4/12/15 8/10/16
f 6/13/17 8/14/18 4/4/19 3/3/20
f 9/15/21 10/16/22 11/17/23 12/18/24
f 13/19/25 11/17/26 10/16/27 14/20/28
f 15/21/29 9/22/30 12/23/31 16/24/32
f 16/24/33 12/23/34 11/25/35 13/26/36
f 14/27/37 10/28/38 9/22/39 15/21/40
f 17/29/41 18/30/42 19/31/43 20/32/44
f 21/33/45 22/34/46 23/35/47 24/36/48
f 24/36/49 23/35/50 18/37/51 17/38/52
f 22/34/53 19/39/54 18/37/55 23/35/56
f 25/40/57 24/36/58 17/38/59 26/41/60
f 26/42/61 17/29/62 20/32/63 28/43/64
f 29/44/65 26/42/66 28/43/67 30/45/68
f 31/46/69 25/40/70 26/41/71 29/47/72
f 32/48/73 33/49/74 34/50/75 35/51/76
f 36/52/77 37/53/78 34/54/79 38/55/80
f 39/56/81 40/57/82 41/58/83 42/59/84
f 43/60/85 44/61/86 37/53/87 45/62/88
f 46/63/89 32/48/90 35/51/91 47/64/92
f 48/65/93 49/66/94 50/67/95 51/68/96
f 52/69/97 53/70/98 54/71/99 55/72/100
f 51/68/101 50/67/102 56/73/103 57/74/104
f 58/75/105 19/76/106 59/77/107 60/78/108
f 61/79/109 58/75/110 60/78/111 62/80/112
f 63/81/113 64/82/114 65/83/115 66/84/116
f 67/85/117 68/86/118 45/87/119 69/88/120
f 70/89/121 39/90/122 71/91/123 72/92/124
f 63/93/125 60/94/126 59/95/127 73/96/128
f 44/61/129 35/97/130 34/54/131 37/53/132
f 69/98/133 45/62/134 37/53/135 36/52/136
f 44/61/137 74/99/138 47/100/139 35/97/140
f 43/60/141 75/101/142 74/99/143 44/61/144
f 61/79/145 62/80/146 50/67/147 49/66/148
f 75/102/149 76/103/150 77/104/151 70/105/152
f 70/106/153 77/107/154 40/57/155 39/56/156
f 45/87/157 68/86/158 78/108/159 43/109/160
f 40/110/161 77/104/162 76/103/163 78/111/164
f 40/110/165 78/111/166 68/112/167 41/113/168
f 79/114/169 41/113/170 68/112/171 67/115/172
f 43/109/173 78/108/174 76/116/175 75/117/176
f 80/118/177 71/119/178 81/120/179 82/121/180
f 83/122/181 82/121/182 81/120/183 84/123/184
f 80/118/185 85/124/186 72/125/187 71/119/188
f 86/126/189 87/127/190 82/128/191 83/129/192
f 64/82/193 63/81/194 85/130/195 80/131/196
f 39/90/197 42/132/198 81/133/199 71/91/200
f 87/127/201 64/82/202 80/131/203 82/128/204
f 47/64/205 74/134/206 75/135/207 46/63/208
f 88/136/209 89/137/210 33/49/211 32/48/212
f 19/138/213 90/139/214 88/136/215 91/140/216
f 89/137/217 92/141/218 93/142/219 94/143/220
f 91/140/221 88/136/222 32/48/223 46/63/224
f 27/144/225 92/141/226 89/137/227
f 95/145/228 65/146/229 96/147/230 56/148/231
f 57/149/232 56/148/233 96/147/234 97/150/235
f 95/145/236 98/151/237 66/152/238 65/146/239
f 62/80/240 60/78/241 98/153/242 95/154/243
f 64/82/244 87/127/245 96/155/246 65/83/247
f 60/94/248 63/93/249 66/152/250 98/151/251
f 50/67/252 62/80/253 95/154/254 56/73/255
f 70/156/256 63/157/257 73/158/258 99/159/259
f 19/138/260 91/140/261 59/160/262
f 99/161/263 73/162/264 91/140/265
f 46/63/266 75/163/267 91/140/268
f 75/102/269 70/105/270 99/164/271
f 91/140/272 73/162/273 59/160/274
f 75/163/275 99/161/276 91/140/277
f 61/165/278 49/166/279 100/167/280 101/168/281
f 58/169/282 61/165/283 101/168/284 19/31/285
f 19/31/286 101/168/287 20/32/288
f 28/43/289 20/32/290 101/168/291 100/167/292
f 87/127/293 86/126/294 97/170/295 96/155/296
f 89/137/297 94/143/298 33/49/299
f 102/171/300 86/126/301 83/129/302
f 42/59/303 41/58/304 79/172/305 103/173/306
f 33/49/307 94/143/308 38/174/309 34/50/310
f 42/132/311 103/175/312 84/176/313 81/133/314
f 30/45/315 28/43/316 100/167/317 104/177/318
f 49/166/319 48/178/320 104/177/321 100/167/322
f 63/157/323 70/156/324 53/70/325 52/69/326
f 70/89/327 72/92/328 54/179/329 53/180/330
f 72/125/331 85/124/332 55/72/333 54/71/334
f 85/130/335 63/81/336 52/181/337 55/182/338
f 24/36/339 27/183/340 21/33/341
f 89/137/342 21/184/343 27/144/344
f 27/183/345 24/36/346 25/40/347
f 90/139/348 21/184/349 89/137/350 88/136/351
